<svg width="192" height="40" viewBox="0 0 192 40" fill="none" xmlns="http://www.w3.org/2000/svg">
<rect x="138" y="36" width="4" height="43" transform="rotate(-90 138 36)" fill="#9900CE"/>
<rect x="128" y="40" width="4" height="43" transform="rotate(-90 128 40)" fill="#85D710"/>
<rect x="149" y="32" width="4" height="43" transform="rotate(-90 149 32)" fill="#FF5912"/>
<path d="M0.68 7.3H3.22L7.62 17.4L12.04 7.3H14.56L7.78 22H7.48L0.68 7.3ZM15.8222 12.82H18.0622V22H15.8222V12.82ZM16.9222 11.1C16.5089 11.1 16.1622 10.96 15.8822 10.68C15.6022 10.4 15.4622 10.0533 15.4622 9.64C15.4622 9.26667 15.6022 8.94667 15.8822 8.68C16.1622 8.41333 16.5089 8.28 16.9222 8.28C17.3222 8.28 17.6622 8.41333 17.9422 8.68C18.2222 8.94667 18.3622 9.26667 18.3622 9.64C18.3622 10.0533 18.2222 10.4 17.9422 10.68C17.6755 10.96 17.3355 11.1 16.9222 11.1ZM21.0528 12.82H23.1728L23.1928 14.5C23.4461 13.94 23.8461 13.48 24.3928 13.12C24.9395 12.76 25.5795 12.58 26.3128 12.58C27.2595 12.58 27.9861 12.78 28.4928 13.18C28.9995 13.5667 29.3395 14.1133 29.5128 14.82C29.6861 15.5267 29.7728 16.4467 29.7728 17.58V22H27.6128V17.64C27.6128 16.48 27.4995 15.6467 27.2728 15.14C27.0461 14.62 26.5795 14.36 25.8728 14.36C25.4728 14.36 25.0661 14.4867 24.6528 14.74C24.2395 14.98 23.8928 15.3333 23.6128 15.8C23.3461 16.2667 23.2128 16.8133 23.2128 17.44V22H21.0528V12.82ZM32.7167 12.82H34.9567V22H32.7167V12.82ZM33.8167 11.1C33.4034 11.1 33.0567 10.96 32.7767 10.68C32.4967 10.4 32.3567 10.0533 32.3567 9.64C32.3567 9.26667 32.4967 8.94667 32.7767 8.68C33.0567 8.41333 33.4034 8.28 33.8167 8.28C34.2167 8.28 34.5567 8.41333 34.8367 8.68C35.1167 8.94667 35.2567 9.26667 35.2567 9.64C35.2567 10.0533 35.1167 10.4 34.8367 10.68C34.5701 10.96 34.2301 11.1 33.8167 11.1ZM42.2273 22.2C41.3207 22.2 40.5007 22.0067 39.7673 21.62C39.0473 21.22 38.474 20.6533 38.0473 19.92C37.6207 19.1733 37.4073 18.3 37.4073 17.3C37.4073 16.3533 37.6007 15.5267 37.9873 14.82C38.3873 14.1 38.9407 13.5467 39.6473 13.16C40.3673 12.7733 41.194 12.58 42.1273 12.58C42.834 12.58 43.4407 12.6733 43.9473 12.86C44.4673 13.0333 44.874 13.2533 45.1673 13.52L44.2073 15.26C43.6473 14.7 43.014 14.42 42.3073 14.42C41.454 14.42 40.8007 14.68 40.3473 15.2C39.9073 15.72 39.6873 16.4133 39.6873 17.28C39.6873 18.2667 39.914 19.0333 40.3673 19.58C40.834 20.1267 41.4807 20.4 42.3073 20.4C42.7207 20.4 43.1207 20.34 43.5073 20.22C43.9073 20.1 44.214 19.96 44.4273 19.8L45.2073 21.32C44.914 21.5467 44.5007 21.7533 43.9673 21.94C43.4473 22.1133 42.8673 22.2 42.2273 22.2ZM47.4238 12.82H49.6638V22H47.4238V12.82ZM48.5238 11.1C48.1104 11.1 47.7638 10.96 47.4838 10.68C47.2038 10.4 47.0638 10.0533 47.0638 9.64C47.0638 9.26667 47.2038 8.94667 47.4838 8.68C47.7638 8.41333 48.1104 8.28 48.5238 8.28C48.9238 8.28 49.2638 8.41333 49.5438 8.68C49.8238 8.94667 49.9638 9.26667 49.9638 9.64C49.9638 10.0533 49.8238 10.4 49.5438 10.68C49.2771 10.96 48.9371 11.1 48.5238 11.1ZM55.8344 22.2C54.5677 22.2 53.6944 21.8267 53.2144 21.08C52.7477 20.3333 52.5144 19.2933 52.5144 17.96V12.82H54.6744V17.42C54.6744 18.18 54.7144 18.7733 54.7944 19.2C54.8877 19.6133 55.061 19.92 55.3144 20.12C55.581 20.32 55.9744 20.42 56.4944 20.42C56.8677 20.42 57.2277 20.3133 57.5744 20.1C57.921 19.8867 58.201 19.6 58.4144 19.24C58.641 18.8667 58.7544 18.46 58.7544 18.02V12.82H60.8944V22H59.1344L58.8944 20.66C58.561 21.18 58.141 21.5667 57.6344 21.82C57.141 22.0733 56.541 22.2 55.8344 22.2ZM66.9277 22.2C66.2877 22.2 65.621 22.12 64.9277 21.96C64.2477 21.7867 63.761 21.5867 63.4677 21.36L64.1877 19.66C64.9877 20.22 65.901 20.5 66.9277 20.5C67.9543 20.5 68.4677 20.2 68.4677 19.6C68.4677 19.3333 68.361 19.1267 68.1477 18.98C67.9343 18.8333 67.5543 18.66 67.0077 18.46L66.2477 18.18C65.4477 17.86 64.8143 17.48 64.3477 17.04C63.881 16.5867 63.6477 15.9933 63.6477 15.26C63.6477 14.42 63.9743 13.7667 64.6277 13.3C65.2943 12.82 66.181 12.58 67.2877 12.58C67.8343 12.58 68.3677 12.64 68.8877 12.76C69.421 12.88 69.8277 13.0333 70.1077 13.22L69.3277 14.94C69.1543 14.7667 68.8743 14.62 68.4877 14.5C68.1143 14.3667 67.6943 14.3 67.2277 14.3C66.281 14.3 65.8077 14.5867 65.8077 15.16C65.8077 15.48 65.9343 15.7267 66.1877 15.9C66.441 16.06 66.8543 16.24 67.4277 16.44C67.481 16.4533 67.6877 16.5267 68.0477 16.66C68.901 16.9933 69.5343 17.3733 69.9477 17.8C70.361 18.2267 70.5677 18.7733 70.5677 19.44C70.5677 20.3467 70.221 21.0333 69.5277 21.5C68.8477 21.9667 67.981 22.2 66.9277 22.2ZM84.713 22.2C83.2596 22.2 81.9596 21.8667 80.813 21.2C79.6663 20.5333 78.7663 19.62 78.113 18.46C77.473 17.2867 77.153 15.9733 77.153 14.52C77.153 13.1067 77.4796 11.8333 78.133 10.7C78.7863 9.56667 79.693 8.68 80.853 8.04C82.013 7.4 83.3196 7.08 84.773 7.08C85.5596 7.08 86.2663 7.15333 86.893 7.3C87.533 7.43333 88.053 7.59333 88.453 7.78C88.853 7.95333 89.1263 8.10667 89.273 8.24L88.393 10.12C87.5663 9.45333 86.3463 9.12 84.733 9.12C83.6663 9.12 82.7396 9.35333 81.953 9.82C81.1663 10.2867 80.5663 10.92 80.153 11.72C79.7396 12.52 79.533 13.4133 79.533 14.4C79.533 15.52 79.753 16.52 80.193 17.4C80.6463 18.28 81.2663 18.9667 82.053 19.46C82.853 19.94 83.753 20.18 84.753 20.18C85.3796 20.18 85.9796 20.1067 86.553 19.96C87.1263 19.8 87.613 19.5533 88.013 19.22V16.38H84.993V14.32H90.233V20.08C89.753 20.68 89.0263 21.1867 88.053 21.6C87.093 22 85.9796 22.2 84.713 22.2ZM96.8758 22.2C95.9291 22.2 95.0891 21.9867 94.3558 21.56C93.6224 21.1333 93.0558 20.5533 92.6558 19.82C92.2558 19.0867 92.0558 18.2733 92.0558 17.38C92.0558 16.5 92.2491 15.6933 92.6358 14.96C93.0358 14.2267 93.6024 13.6467 94.3358 13.22C95.0691 12.7933 95.9158 12.58 96.8758 12.58C97.8358 12.58 98.6758 12.7933 99.3958 13.22C100.129 13.6467 100.689 14.2267 101.076 14.96C101.476 15.6933 101.676 16.5 101.676 17.38C101.676 18.2733 101.476 19.0867 101.076 19.82C100.676 20.5533 100.109 21.1333 99.3758 21.56C98.6558 21.9867 97.8224 22.2 96.8758 22.2ZM96.9358 20.44C97.7091 20.44 98.3158 20.1533 98.7558 19.58C99.2091 19.0067 99.4358 18.2867 99.4358 17.42C99.4358 16.5533 99.1958 15.8267 98.7158 15.24C98.2358 14.64 97.6024 14.34 96.8158 14.34C96.0558 14.34 95.4424 14.6333 94.9758 15.22C94.5224 15.8067 94.2958 16.54 94.2958 17.42C94.2958 18.2733 94.5424 18.9933 95.0358 19.58C95.5291 20.1533 96.1624 20.44 96.9358 20.44ZM103.983 12.82H106.103L106.123 14.5C106.376 13.94 106.776 13.48 107.323 13.12C107.869 12.76 108.509 12.58 109.243 12.58C110.189 12.58 110.916 12.78 111.423 13.18C111.929 13.5667 112.269 14.1133 112.443 14.82C112.616 15.5267 112.703 16.4467 112.703 17.58V22H110.543V17.64C110.543 16.48 110.429 15.6467 110.203 15.14C109.976 14.62 109.509 14.36 108.803 14.36C108.403 14.36 107.996 14.4867 107.583 14.74C107.169 14.98 106.823 15.3333 106.543 15.8C106.276 16.2667 106.143 16.8133 106.143 17.44V22H103.983V12.82ZM122.746 21.32C122.493 21.5067 122.153 21.6867 121.726 21.86C121.313 22.02 120.846 22.1267 120.326 22.18C120.38 22.3533 120.506 22.5667 120.706 22.82C120.933 23.1267 121.1 23.4067 121.206 23.66C121.326 23.9133 121.386 24.2267 121.386 24.6C121.386 25.52 121.113 26.1933 120.566 26.62C120.033 27.06 119.3 27.28 118.366 27.28C118.046 27.28 117.686 27.2467 117.286 27.18L117.466 25.32C117.653 25.3467 117.84 25.36 118.026 25.36C118.973 25.36 119.446 25.06 119.446 24.46C119.446 24.34 119.42 24.2133 119.366 24.08C119.313 23.96 119.26 23.86 119.206 23.78C119.166 23.7133 119.14 23.6667 119.126 23.64C119.006 23.4667 118.906 23.3 118.826 23.14C118.76 22.98 118.726 22.8 118.726 22.6C118.726 22.3867 118.753 22.2267 118.806 22.12C117.66 21.92 116.726 21.4 116.006 20.56C115.3 19.7067 114.946 18.62 114.946 17.3C114.946 16.3533 115.14 15.5267 115.526 14.82C115.926 14.1 116.48 13.5467 117.186 13.16C117.906 12.7733 118.733 12.58 119.666 12.58C120.373 12.58 120.98 12.6733 121.486 12.86C122.006 13.0333 122.413 13.2533 122.706 13.52L121.746 15.26C121.186 14.7 120.553 14.42 119.846 14.42C118.993 14.42 118.34 14.68 117.886 15.2C117.446 15.72 117.226 16.4133 117.226 17.28C117.226 18.2667 117.453 19.0333 117.906 19.58C118.373 20.1267 119.02 20.4 119.846 20.4C120.26 20.4 120.66 20.34 121.046 20.22C121.446 20.1 121.753 19.96 121.966 19.8L122.746 21.32ZM128.863 22.2C128.036 22.2 127.269 22.0067 126.563 21.62C125.869 21.22 125.309 20.66 124.883 19.94C124.469 19.2067 124.263 18.3533 124.263 17.38C124.263 16.42 124.443 15.58 124.803 14.86C125.176 14.14 125.703 13.58 126.383 13.18C127.063 12.78 127.863 12.58 128.783 12.58C129.316 12.58 129.816 12.6733 130.283 12.86C130.749 13.0467 131.143 13.28 131.463 13.56C131.783 13.8267 131.996 14.0933 132.103 14.36L132.143 12.82H134.203V22H132.163L132.123 20.38C131.896 20.86 131.483 21.2867 130.883 21.66C130.283 22.02 129.609 22.2 128.863 22.2ZM129.223 20.4C129.983 20.4 130.623 20.14 131.143 19.62C131.663 19.0867 131.923 18.3933 131.923 17.54V17.4C131.923 16.8267 131.803 16.3133 131.563 15.86C131.323 15.4067 130.996 15.0533 130.583 14.8C130.169 14.5467 129.716 14.42 129.223 14.42C128.369 14.42 127.709 14.7 127.243 15.26C126.776 15.8067 126.543 16.52 126.543 17.4C126.543 18.2933 126.769 19.02 127.223 19.58C127.689 20.1267 128.356 20.4 129.223 20.4ZM137.288 7.3H139.428V22H137.288V7.3ZM140.999 12.82H143.459L145.439 16.96L146.079 18.62L146.719 16.96L148.679 12.82H151.079L146.259 22H145.839L140.999 12.82ZM156.565 22.2C155.471 22.2 154.558 21.9867 153.825 21.56C153.091 21.12 152.551 20.54 152.205 19.82C151.858 19.0867 151.685 18.2867 151.685 17.42C151.685 16.4467 151.885 15.5933 152.285 14.86C152.698 14.1267 153.265 13.5667 153.985 13.18C154.705 12.78 155.518 12.58 156.425 12.58C157.838 12.58 158.885 12.9733 159.565 13.76C160.258 14.5333 160.605 15.6267 160.605 17.04C160.605 17.4 160.585 17.7733 160.545 18.16H153.945C154.091 18.9733 154.378 19.56 154.805 19.92C155.245 20.28 155.851 20.46 156.625 20.46C157.265 20.46 157.791 20.4067 158.205 20.3C158.618 20.1933 158.998 20.0467 159.345 19.86L160.005 21.4C159.671 21.6133 159.218 21.8 158.645 21.96C158.071 22.12 157.378 22.2 156.565 22.2ZM158.505 16.66C158.518 15.8333 158.338 15.2533 157.965 14.92C157.591 14.5733 157.058 14.4 156.365 14.4C154.965 14.4 154.158 15.1533 153.945 16.66H158.505ZM166.029 22.2C165.389 22.2 164.723 22.12 164.029 21.96C163.349 21.7867 162.863 21.5867 162.569 21.36L163.289 19.66C164.089 20.22 165.003 20.5 166.029 20.5C167.056 20.5 167.569 20.2 167.569 19.6C167.569 19.3333 167.463 19.1267 167.249 18.98C167.036 18.8333 166.656 18.66 166.109 18.46L165.349 18.18C164.549 17.86 163.916 17.48 163.449 17.04C162.983 16.5867 162.749 15.9933 162.749 15.26C162.749 14.42 163.076 13.7667 163.729 13.3C164.396 12.82 165.283 12.58 166.389 12.58C166.936 12.58 167.469 12.64 167.989 12.76C168.523 12.88 168.929 13.0333 169.209 13.22L168.429 14.94C168.256 14.7667 167.976 14.62 167.589 14.5C167.216 14.3667 166.796 14.3 166.329 14.3C165.383 14.3 164.909 14.5867 164.909 15.16C164.909 15.48 165.036 15.7267 165.289 15.9C165.543 16.06 165.956 16.24 166.529 16.44C166.583 16.4533 166.789 16.5267 167.149 16.66C168.003 16.9933 168.636 17.3733 169.049 17.8C169.463 18.2267 169.669 18.7733 169.669 19.44C169.669 20.3467 169.323 21.0333 168.629 21.5C167.949 21.9667 167.083 22.2 166.029 22.2Z" fill="black"/>
</svg>
